<svg version="1.1" id="Réteg_1" xmlns="http://www.w3.org/2000/svg" xmlns:xlink="http://www.w3.org/1999/xlink" x="0px" y="0px"
	 viewBox="0 0 2066 768" style="enable-background:new 0 0 2066 768;" xml:space="preserve">
<style type="text/css">
	.st0{fill:#F4F5F7;}
	.st1{font-family:'Futura-CondensedMedium';}
	.st2{font-size:85px;}
	.st3{letter-spacing:8;}
</style>
<text transform="matrix(1 0 0 1 508.4834 371.4178)" class="st0 st1 st2 st3">HOMESTAR</text>
<g>
	<path class="st0" d="M750.57,82.4c-5.62,3.82-9.91,6.72-14.2,9.65c-23.37,15.98-46.68,32.03-70.11,47.92
		c-26.11,17.71-52.37,35.21-78.49,52.9c-17.4,11.79-34.68,23.76-52.03,35.62c-9.69,6.62-19.36,13.28-29.19,19.7
		c-2.51,1.64-3.56,3.4-3.56,6.4c0.07,73.6,0.07,147.2-0.02,220.8c0,3.5,1.03,4.52,4.5,4.47c13.05-0.18,26.1-0.01,39.16-0.14
		c1.92-0.02,4.15-0.42,5.69-1.46c15.56-10.39,31.01-20.94,46.48-31.47c21.74-14.8,43.62-29.4,65.11-44.55
		c7.57-5.34,15.18-7.58,24.5-7.44c33.25,0.49,66.5,0.17,99.76,0.24c2.48,0.01,4.96,0.68,7.44,1.04c0.07,0.44,0.14,0.88,0.2,1.32
		c-5.39,3.75-10.75,7.56-16.19,11.24c-24.98,16.89-50,33.71-74.96,50.62c-26.75,18.12-53.44,36.31-80.17,54.47
		c-16.49,11.2-32.93,22.47-49.53,33.5c-2.16,1.43-5.12,2.33-7.71,2.33c-42.89,0.14-85.77,0.05-128.66,0.18
		c-4.04,0.01-5.59-0.75-5.59-5.28c0.14-108.85,0.12-217.7,0.05-326.55c0-3.31,1-5.32,3.82-7.2c19.94-13.32,39.76-26.83,59.6-40.29
		c32.12-21.79,64.26-43.53,96.33-65.39c19.68-13.41,39.19-27.06,58.85-40.48c10.86-7.42,21.92-14.54,32.81-21.92
		c2.24-1.52,3.98-1.66,6.28-0.1c18.9,12.89,37.85,25.69,56.81,38.5C748.2,81.48,748.98,81.7,750.57,82.4z"/>
	<path class="st0" d="M573.18,284.77c8.05-5.39,16.15-10.71,24.15-16.17c24.91-17,49.76-34.09,74.69-51.07
		c20.08-13.68,40.27-27.18,60.34-40.87c19.02-12.97,37.94-26.09,56.93-39.11c4.33-2.97,8.65-5.98,13.21-8.55
		c1.37-0.77,4-0.85,5.25-0.03c12.14,7.98,24.09,16.25,36.14,24.37c11.67,7.86,23.42,15.6,35.08,23.47
		c17.16,11.58,34.3,23.2,51.34,34.95c1.29,0.89,1.87,2.93,2.52,4.54c0.32,0.8,0.06,1.84,0.06,2.77c0,108.24,0,216.48,0,324.72
		c0,5.98-0.01,5.98-6.1,5.98c-75.06,0-150.12,0-225.18-0.02c-2.04,0-4.08-0.32-6.12-0.49c-0.12-0.44-0.24-0.89-0.36-1.33
		c1.13-0.88,2.21-1.84,3.4-2.64c26.54-17.92,53.11-35.81,79.64-53.74c4.34-2.93,8.41-6.3,12.89-8.99c2.37-1.42,5.36-2.53,8.08-2.56
		c19.73-0.21,39.47-0.21,59.21-0.03c3.76,0.03,4.68-1.15,4.68-4.77c-0.09-73.45-0.05-146.91-0.2-220.36c0-2.05-1.34-4.89-2.98-6.04
		c-16.62-11.57-33.48-22.79-50.14-34.3c-3.08-2.13-5.26-1.99-8.29,0.08c-27.94,19.15-55.98,38.14-84,57.17
		c-2.55,1.74-5.37,3.17-7.67,5.19c-8.63,7.58-18.45,9.58-29.91,9.35c-33.71-0.67-67.44-0.24-101.16-0.24c-1.67,0-3.34,0-5.01,0
		C573.51,285.62,573.34,285.19,573.18,284.77z"/>
</g>
</svg>
