<svg id="Réteg_1" data-name="Réteg 1" xmlns="http://www.w3.org/2000/svg" viewBox="0 0 1256.8 508.35">
  <defs>
    <style>
      .cls-1 {
        isolation: isolate;
      }

      .cls-2 {
        fill: #f4f5f7;
      }
    </style>
  </defs>
  <g class="cls-1">
    <path class="cls-2" d="M80.42,265.91h8.63V291h12.66V265.91h8.63V330h-8.63v-31.7H89.05V330H80.42Z"/>
    <path class="cls-2" d="M160.3,299.53q0,17-3.78,24.12t-12.66,7.13q-9.35,0-13.16-7.67-3.78-7.51-3.77-26.69,0-17.1,3.73-24.2t12.78-7.14q8.06,0,12,5.52,2.57,3.7,3.73,10.5A108.59,108.59,0,0,1,160.3,299.53Zm-9.05.91q0-16.63-1.5-22.08c-1-3.65-3-5.47-6.1-5.47s-5.12,1.67-6.14,5S136,288.06,136,298.24q0,14.07,1.57,19.51,1.62,5.14,6.06,5.15t6-4.82Q151.25,313.31,151.25,300.44Z"/>
    <path class="cls-2" d="M179.86,265.91h7.39l5.65,26.15q1,4.9,1.89,9.82t1.55,10.31c.06-.47.1-.84.13-1.1a3.3,3.3,0,0,1,.08-.56l1.2-7.35,1.08-7,1-4.61,5-25.69h7.47L218.17,330h-8.26l-1.45-21.74c-.05-1.11-.1-2.06-.14-2.87s-.07-1.46-.07-2l-.37-8.59-.21-7.89c0-.05,0-.17,0-.35s0-.42-.06-.73l-.21,1.29q-.33,2.28-.6,4c-.18,1.13-.34,2.08-.48,2.86l-1.08,5.85-.41,2.2-5.4,28H193.6l-5.06-24.15q-1-4.77-1.85-9.69t-1.47-10.32L182.73,330h-8.14Z"/>
    <path class="cls-2" d="M233.3,265.91h22.95v7.31H241.93v20.29h12.7v7.31h-12.7v21.87h14.32V330H233.3Z"/>
    <path class="cls-2" d="M293.54,267.24v8.43c-2.62-1.89-5-2.83-7.09-2.83a7.13,7.13,0,0,0-5.56,2.41,8.52,8.52,0,0,0-2.16,6.1,10.52,10.52,0,0,0,1.53,5.77,24.94,24.94,0,0,0,2.6,3.32q1.8,2,4.67,4.9a38.67,38.67,0,0,1,7.18,9.25,20.43,20.43,0,0,1,1.91,9.26,17.94,17.94,0,0,1-4.2,12.24,13.74,13.74,0,0,1-10.75,4.69,14.89,14.89,0,0,1-9.42-3V319.2c3.07,2.24,5.87,3.37,8.39,3.37a6.87,6.87,0,0,0,5.52-2.35,9.51,9.51,0,0,0,2-6.37,12.72,12.72,0,0,0-1.54-6.27,25.62,25.62,0,0,0-2.2-3.05q-1.41-1.72-3.52-3.84c-2.19-2.16-4-4.06-5.44-5.72a27.12,27.12,0,0,1-3.2-4.36,19.22,19.22,0,0,1-2-9.22q0-7.5,3.9-11.91A13.46,13.46,0,0,1,284.75,265,18.72,18.72,0,0,1,293.54,267.24Z"/>
    <path class="cls-2" d="M307.8,265.91h28.1v7.56h-9.67V330h-8.47V273.47h-10Z"/>
    <path class="cls-2" d="M356.59,265.91h6.72L377.05,330H368.5l-2.41-12.49h-12.7L351,330h-8.31Zm8.26,44.91-1.91-10.21q-1.9-10.41-3.11-22.25-.58,5.77-1.5,11.69t-2.15,12.55l-1.58,8.22Z"/>
    <path class="cls-2" d="M390.11,265.91h11.37q7,0,10.5,3.36,4.35,4.37,4.36,13.33,0,6.88-2.31,11.06a9.85,9.85,0,0,1-6.58,5.16L419.24,330h-8.76l-11.74-31.37V330h-8.63Zm8.63,28.39c3.35,0,5.71-.77,7.1-2.32s2.07-4.17,2.07-7.85a25.68,25.68,0,0,0-.44-5.1,9.09,9.09,0,0,0-1.37-3.45,5.57,5.57,0,0,0-2.4-1.95,9.07,9.07,0,0,0-3.51-.62h-1.45Z"/>
  </g>
  <g>
    <path class="cls-2" d="M317.57,41c-5.62,3.82-9.91,6.72-14.2,9.65-23.37,16-46.68,32-70.11,47.92-26.11,17.71-52.37,35.21-78.49,52.9-17.4,11.79-34.68,23.76-52,35.62-9.69,6.62-19.36,13.28-29.19,19.7a6.8,6.8,0,0,0-3.56,6.4q.11,110.4,0,220.8c0,3.5,1,4.52,4.5,4.47,13-.18,26.1,0,39.16-.14a10.83,10.83,0,0,0,5.69-1.46c15.56-10.39,31-20.94,46.48-31.47,21.74-14.8,43.62-29.4,65.11-44.55a39.07,39.07,0,0,1,24.5-7.44c33.25.49,66.5.17,99.76.24a54.33,54.33,0,0,1,7.44,1c.07.44.14.88.2,1.32-5.39,3.75-10.75,7.56-16.19,11.24q-37.47,25.33-75,50.62Q231.53,445,191.49,472.31c-16.49,11.2-32.93,22.47-49.53,33.5a14.76,14.76,0,0,1-7.71,2.33c-42.89.14-85.77.05-128.66.18-4,0-5.59-.75-5.59-5.28Q.21,339.77.05,176.49a7.6,7.6,0,0,1,3.82-7.2C23.81,156,43.63,142.46,63.47,129q48.18-32.68,96.33-65.39C179.48,50.2,199,36.55,218.65,23.13c10.86-7.42,21.92-14.54,32.81-21.92,2.24-1.52,4-1.66,6.28-.1q28.35,19.34,56.81,38.5A21.21,21.21,0,0,0,317.57,41Z"/>
    <path class="cls-2" d="M140.17,243.35c8.05-5.39,16.15-10.71,24.15-16.17q37.37-25.5,74.69-51.07c20.08-13.68,40.27-27.18,60.34-40.87,19-13,37.94-26.09,56.93-39.11,4.33-3,8.65-6,13.21-8.55a6.08,6.08,0,0,1,5.25,0c12.14,8,24.09,16.25,36.14,24.37,11.67,7.86,23.42,15.6,35.08,23.47q25.74,17.37,51.34,35c1.29.89,1.87,2.93,2.52,4.54a8,8,0,0,1,.06,2.77V502.37c0,6,0,6-6.1,6q-112.59,0-225.18,0c-2,0-4.08-.32-6.12-.49l-.36-1.33c1.13-.88,2.21-1.84,3.4-2.64q39.81-26.88,79.64-53.74c4.34-2.93,8.41-6.3,12.89-9a17,17,0,0,1,8.08-2.56q29.6-.31,59.21,0c3.76,0,4.68-1.15,4.68-4.77q-.13-110.17-.2-220.36a8.44,8.44,0,0,0-3-6c-16.62-11.57-33.48-22.79-50.14-34.3-3.08-2.13-5.26-2-8.29.08q-41.91,28.72-84,57.17c-2.55,1.74-5.37,3.17-7.67,5.19-8.63,7.58-18.45,9.58-29.91,9.35-33.71-.67-67.44-.24-101.16-.24h-5C140.5,244.2,140.34,243.77,140.17,243.35Z"/>
  </g>
  <g class="cls-1">
    <path class="cls-2" d="M511.94,265.91h11.37q8.22,0,12,4.15T539,283.34q0,12.8-7.51,16.52-3.78,1.71-10.92,1.71V330h-8.63Zm8.63,28.27q5.35,0,7.39-2.16t2.07-7.8q0-5.73-2-8.39t-6.26-2.65h-1.21Z"/>
    <path class="cls-2" d="M553.17,287h7.93v5.35a15.13,15.13,0,0,1,4-4.77A10.33,10.33,0,0,1,570.4,286v8.3a10.27,10.27,0,0,0-1.41-.12c-2.85,0-4.89.73-6.1,2.2s-1.79,4-1.79,7.55v26h-7.93Z"/>
    <path class="cls-2" d="M609.47,308.87q0,21.79-13.48,21.79T582.5,308.54q0-22.21,13.44-22.21a13,13,0,0,1,6,1.33,10.72,10.72,0,0,1,4.22,4.11,21.7,21.7,0,0,1,2.46,7A54.55,54.55,0,0,1,609.47,308.87Zm-8.21-.21q0-8.46-1.12-11.79t-4-3.36q-2.82,0-4,3.32T591,308.41q0,8.26,1.13,11.54t4,3.32c1.88,0,3.2-1.09,3.94-3.28S601.26,314.17,601.26,308.66Z"/>
    <path class="cls-2" d="M624.85,347.59V287h7.93v5.56a13.73,13.73,0,0,1,3.4-4.9,7.21,7.21,0,0,1,4.57-1.37q5.31,0,7.78,5.5T651,309q0,11.44-2.53,16.47a8.34,8.34,0,0,1-8,5.15,7.39,7.39,0,0,1-4.36-1.2,7.87,7.87,0,0,1-1.66-1.66,19.93,19.93,0,0,1-1.66-2.62v22.41Zm17.93-38.85q0-8.75-1.16-11.87-1.12-3.36-4-3.36-2.73,0-3.9,3.49-1.16,3.24-1.16,11.54t1.16,11.53q1.2,3.45,3.9,3.45c1.88,0,3.23-1.11,4-3.32Q642.78,317.13,642.78,308.74Z"/>
    <path class="cls-2" d="M683,315.51h7.39q-.89,15.15-12.46,15.15a12.64,12.64,0,0,1-5.91-1.29,10.26,10.26,0,0,1-4.09-4,20.51,20.51,0,0,1-2.38-6.85,54.36,54.36,0,0,1-.77-9.88q0-11.37,3.17-16.85a10.58,10.58,0,0,1,9.82-5.48q12.9,0,12.91,22.75v1H672.52q0,13.79,5.48,13.78Q683,323.85,683,315.51Zm-.42-11.16c-.33-4.51-.84-7.48-1.53-8.89a3.62,3.62,0,0,0-3.49-2.36,3.57,3.57,0,0,0-3.48,2.36c-.7,1.41-1.21,4.38-1.54,8.89Z"/>
    <path class="cls-2" d="M705.7,287h7.93v5.35a15.13,15.13,0,0,1,4-4.77,10.33,10.33,0,0,1,5.27-1.58v8.3a10.27,10.27,0,0,0-1.41-.12q-4.28,0-6.11,2.2T713.63,304v26H705.7Z"/>
    <path class="cls-2" d="M739.13,275h7.93v12h4.32v6.31h-4.32V330h-7.93V293.35h-4.35V287h4.35Z"/>
    <path class="cls-2" d="M760.9,287h9l6.31,30,7.39-30h8l-17.56,60.55h-8.34l6.6-21Z"/>
    <path class="cls-2" d="M833.45,265.91h7.39l5.65,26.15q1,4.9,1.88,9.82t1.56,10.31c.06-.47.1-.84.13-1.1a3.3,3.3,0,0,1,.08-.56l1.2-7.35,1.08-7,1-4.61,5-25.69h7.47L871.76,330H863.5l-1.45-21.74c-.06-1.11-.1-2.06-.14-2.87s-.07-1.46-.07-2l-.37-8.59-.21-7.89c0-.05,0-.17,0-.35s0-.42-.06-.73l-.21,1.29q-.33,2.28-.6,4c-.18,1.13-.34,2.08-.48,2.86l-1.08,5.85-.41,2.2L853,330h-5.81l-5.06-24.15q-1-4.77-1.85-9.69t-1.47-10.32L836.32,330h-8.14Z"/>
    <path class="cls-2" d="M911,287V330H903v-5.51a13.58,13.58,0,0,1-3.4,4.85,7,7,0,0,1-4.48,1.33q-5.35,0-7.84-5.48T884.82,308q0-11.16,2.49-16.42t7.84-5.25q4.89,0,7.88,5.56V287ZM893,308.33q0,8.46,1.12,11.83c.78,2.24,2.13,3.36,4.07,3.36q2.65,0,3.86-3.49,1.2-3.73,1.2-11.49T902.08,297q-1.2-3.5-3.86-3.49-2.82,0-4,3.32Q893,299.9,893,308.33Z"/>
    <path class="cls-2" d="M928,287h7.93V292q3.4-5.66,8.8-5.65,5.22,0,7.47,4.11,1.25,2.32,1.24,9V330h-7.93l0-28.72c0-2.9-.34-5-1-6.18a3.76,3.76,0,0,0-3.57-1.83,5,5,0,0,0-2.3.48,3.57,3.57,0,0,0-1.51,1.54,8.41,8.41,0,0,0-.85,2.76,27.3,27.3,0,0,0-.27,4.19V330H928Z"/>
    <path class="cls-2" d="M994.88,287V330H987v-5.51a13.7,13.7,0,0,1-3.41,4.85,7,7,0,0,1-4.48,1.33q-5.36,0-7.84-5.48T968.74,308q0-11.16,2.49-16.42t7.84-5.25c3.27,0,5.89,1.86,7.89,5.56V287ZM977,308.33q0,8.46,1.12,11.83t4.07,3.36q2.65,0,3.86-3.49,1.2-3.73,1.21-11.49T986,297q-1.2-3.5-3.86-3.49-2.82,0-4,3.32Q977,299.9,977,308.33Z"/>
    <path class="cls-2" d="M1028.52,287h8v44.32q0,8-1.57,11-2.91,5.66-11.67,5.65-5.76,0-9-3.28a12.07,12.07,0,0,1-3.32-8.92l0-1.33h7.67c0,4.56,1.71,6.85,5.11,6.85,1.85,0,3.11-.58,3.78-1.75s1-3.3,1-6.6v-8.25q-2.52,5.88-7.76,5.89t-8-5.23q-2.55-5.24-2.55-16.35,0-11.79,2.45-17.39,2.41-5.35,8-5.36a6.85,6.85,0,0,1,4.32,1.29,15.19,15.19,0,0,1,3.48,4.56Zm.13,21.87q0-15.39-5.31-15.4-2.54,0-3.7,3.47t-1.16,11.1q0,8.1,1.2,11.91c.83,2.35,2.22,3.53,4.15,3.53s3.09-1,3.78-3.15S1028.65,314.58,1028.65,308.91Z"/>
    <path class="cls-2" d="M1070.05,315.51h7.39q-.87,15.15-12.45,15.15a12.65,12.65,0,0,1-5.92-1.29,10.26,10.26,0,0,1-4.09-4,20.51,20.51,0,0,1-2.38-6.85,54.36,54.36,0,0,1-.77-9.88q0-11.37,3.17-16.85a10.58,10.58,0,0,1,9.82-5.48q12.9,0,12.91,22.75v1h-18.14q0,13.79,5.48,13.78Q1070.05,323.85,1070.05,315.51Zm-.42-11.16c-.33-4.51-.84-7.48-1.53-8.89a3.62,3.62,0,0,0-3.49-2.36,3.57,3.57,0,0,0-3.48,2.36c-.7,1.41-1.21,4.38-1.54,8.89Z"/>
    <path class="cls-2" d="M1092.77,287h7.93v5.31q3.29-6,8.72-6,5.92,0,8,6,3.15-6,9-6,4.53,0,6.91,2.39c1.59,1.59,2.39,3.94,2.39,7V330h-8V301.73q0-4.86-.91-6.52c-.58-1.13-1.72-1.7-3.41-1.7-1.91,0-3.21.58-3.9,1.75s-1,3.29-1,6.47V330h-8.22V301.73a27.86,27.86,0,0,0-.23-3.86,7.28,7.28,0,0,0-.77-2.53,3.31,3.31,0,0,0-1.41-1.39,4.8,4.8,0,0,0-2.16-.44,4.25,4.25,0,0,0-3.9,1.87c-.77,1.25-1.16,3.36-1.16,6.35V330h-7.93Z"/>
    <path class="cls-2" d="M1169.29,315.51h7.38q-.87,15.15-12.45,15.15a12.61,12.61,0,0,1-5.91-1.29,10.26,10.26,0,0,1-4.09-4,20.5,20.5,0,0,1-2.39-6.85,55.36,55.36,0,0,1-.76-9.88q0-11.37,3.17-16.85a10.58,10.58,0,0,1,9.82-5.48q12.9,0,12.9,22.75v1h-18.13q0,13.79,5.48,13.78Q1169.29,323.85,1169.29,315.51Zm-.42-11.16c-.33-4.51-.84-7.48-1.54-8.89a3.62,3.62,0,0,0-3.48-2.36,3.58,3.58,0,0,0-3.49,2.36c-.69,1.41-1.2,4.38-1.53,8.89Z"/>
    <path class="cls-2" d="M1192,287h7.93V292q3.4-5.66,8.8-5.65,5.22,0,7.47,4.11,1.24,2.32,1.24,9V330h-7.93l0-28.72q0-4.35-1-6.18a3.78,3.78,0,0,0-3.57-1.83,5,5,0,0,0-2.31.48,3.62,3.62,0,0,0-1.51,1.54,8.41,8.41,0,0,0-.85,2.76,27.3,27.3,0,0,0-.27,4.19V330H1192Z"/>
    <path class="cls-2" d="M1235.36,275h7.93v12h4.31v6.31h-4.31V330h-7.93V293.35H1231V287h4.36Z"/>
  </g>
</svg>
