<svg width="575" height="341" viewBox="0 0 575 341" fill="none" xmlns="http://www.w3.org/2000/svg">
<rect y="41" width="575" height="300" fill="#30343F"/>
<path d="M514.063 189.613H570.216V211H468.946L521.29 147.621C526.433 141.306 530.73 135.837 534.18 131.215C537.696 126.592 540.365 122.719 542.188 119.594C545.899 113.474 547.755 107.973 547.755 103.09C547.755 96.0586 545.281 90.1667 540.333 85.4141C535.385 80.6615 529.265 78.2852 521.973 78.2852C506.739 78.2852 498.015 87.3021 495.801 105.336H473.145C476.791 73.5651 492.839 57.6797 521.29 57.6797C535.027 57.6797 546.55 62.0417 555.86 70.7656C565.235 79.4896 569.923 90.2969 569.923 103.188C569.923 111.391 567.742 119.431 563.38 127.309C561.166 131.41 557.911 136.293 553.614 141.957C549.382 147.556 544.011 154.197 537.501 161.879L514.063 189.613Z" fill="#484B52"/>
<path d="M24.7845 41H104.095V105.511C104.095 119.842 96.3622 133.058 83.8688 140.08C71.8036 146.861 57.0757 146.861 45.0105 140.08C32.5171 133.058 24.7845 119.842 24.7845 105.511V41Z" fill="#484B52"/>
<path d="M64.3161 101.316L67.691 104.691C67.8724 104.872 68.1264 104.981 68.3986 104.981H70.9932C71.5375 104.981 71.9911 105.435 71.9911 105.979V108.574C71.9911 108.828 72.1 109.082 72.2814 109.281L72.6988 109.699C72.8802 109.88 73.1342 109.989 73.4064 109.989H76.001C76.5453 109.989 76.9989 110.443 76.9989 110.987V113.582C76.9989 113.836 77.1078 114.09 77.2893 114.289L77.7066 114.706C77.888 114.888 78.142 114.997 78.4142 114.997H81.0088C81.5531 114.997 82.0067 115.45 82.0067 115.995V118.589C82.0067 118.843 82.1156 119.097 82.297 119.297L83.422 120.422C83.803 120.803 84.3111 121.021 84.8372 121.021H92.0042C92.5485 121.021 93.0021 120.567 93.0021 120.023V112.856C93.0021 112.33 92.7844 111.803 92.4034 111.44L73.3157 92.3528L69.8138 94.0039L69.5235 94.1491L68.1083 95.5643L64.3161 101.352V101.316Z" fill="white"/>
<path d="M35.0133 82.7361C35.4306 92.3163 42.906 100.1 52.4498 100.935C53.4659 101.007 54.482 101.007 55.4981 100.935C56.8407 100.844 58.1653 100.59 59.4535 100.191C59.8164 100.082 60.1974 100.191 60.4514 100.445L60.651 100.644L61.4131 101.407C61.7941 101.788 62.3021 102.005 62.8283 102.005C63.3545 102.005 63.8625 101.788 64.2436 101.407L73.4064 92.2437C73.7874 91.8627 74.0052 91.3546 74.0052 90.8285C74.0052 90.3023 73.7874 89.7942 73.4064 89.4132L72.4448 88.4516C72.1907 88.1975 72.0819 87.7984 72.1907 87.4536C72.8802 85.1856 73.1161 82.8087 72.9346 80.45C72.1182 71.1783 64.7698 63.848 55.4981 63.0497C55.244 63.0315 54.99 63.0134 54.736 62.9952C49.4379 62.7956 44.3031 64.8097 40.5654 68.5474C36.8277 72.2851 34.8137 77.438 35.0133 82.718V82.7361Z" fill="white"/>
<path d="M42.3981 79.9966H65.5682C65.7678 79.9784 65.913 79.8333 65.9674 79.6518C66.0218 79.4704 65.9674 79.2708 65.8041 79.1438L62.8466 76.8213L57.7118 72.757L56.097 71.4869L54.4458 70.1806C54.1737 69.9447 53.7564 69.9447 53.4842 70.1806L50.2182 72.757L45.0834 76.8213L42.1259 79.1619C41.9808 79.2708 41.9082 79.4704 41.9626 79.6518C42.0171 79.8333 42.1622 79.9784 42.3618 79.9966H42.3981Z" fill="white"/>
<path d="M59 83.9885H57.0041C56.4598 83.9885 56.0062 84.4421 56.0062 84.9865V91.9901H59.9979V84.9865C59.9979 84.4421 59.5443 83.9885 59 83.9885Z" fill="white"/>
<path d="M49.0024 83.9885H50.9982C51.5494 83.9885 51.9962 84.4353 51.9962 84.9865V86.9823C51.9962 87.5335 51.5494 87.9802 50.9982 87.9802H49.0024C48.4512 87.9802 48.0044 87.5335 48.0044 86.9823V84.9865C48.0044 84.4353 48.4512 83.9885 49.0024 83.9885Z" fill="white"/>
<path d="M55.4981 100.935C55.4981 100.935 55.4073 100.935 55.3529 100.935C56.115 100.881 56.8952 100.79 57.6391 100.645L57.9657 100.972C57.1492 101.008 56.3145 101.008 55.4981 100.935Z" fill="white"/>
<path d="M88.8832 109.28C88.484 108.881 88.484 108.264 88.8832 107.865C89.2824 107.466 89.8993 107.466 90.2985 107.865C90.6976 108.264 90.6976 108.881 90.2985 109.28C90.117 109.462 89.863 109.571 89.5908 109.571C89.3187 109.571 89.0647 109.462 88.8832 109.28Z" fill="#051250"/>
<path d="M92.0041 122H84.8372C84.0388 122 83.2768 121.692 82.7143 121.129L81.5894 120.004C81.2083 119.623 81.0087 119.115 81.0087 118.589V115.994H78.4141C77.8879 115.994 77.3799 115.777 76.9989 115.414L76.5816 114.996C76.2005 114.615 76.0009 114.107 76.0009 113.581V110.986H73.4063C72.8801 110.986 72.3721 110.769 71.9911 110.406L71.5919 110.007C71.2109 109.626 71.0113 109.118 71.0113 108.591V105.997H68.4167C67.8905 105.997 67.3824 105.779 67.0014 105.416L64.2254 102.64C63.0641 103.257 61.6307 103.057 60.7054 102.114L59.7437 101.152C57.3668 101.878 54.8629 102.132 52.3772 101.933C42.3434 101.025 34.5051 92.8423 34.0152 82.7722C33.7975 77.2019 35.9204 71.795 39.8577 67.8577C43.795 63.9204 49.202 61.7975 54.7722 62.0152C64.8423 62.5051 73.0253 70.3253 73.9325 80.3772C74.1321 82.8629 73.8781 85.3668 73.1523 87.7437L74.114 88.7054C75.0393 89.6307 75.257 91.0641 74.622 92.2254L87.4499 105.053C87.704 105.307 87.8128 105.67 87.7221 106.015C87.6314 106.36 87.3592 106.632 87.0145 106.723C86.6697 106.813 86.3069 106.723 86.0528 106.45L73.3337 93.7313L71.2472 95.8179L88.72 113.273C89.1011 113.672 89.1011 114.289 88.72 114.688C88.339 115.087 87.704 115.087 87.3048 114.688L69.8319 97.2332L65.7495 101.316L68.4167 103.983H71.0113C72.1181 103.983 73.0072 104.872 73.0072 105.979V108.573L73.4063 108.972H76.0009C77.1077 108.972 77.9968 109.862 77.9968 110.968V113.563L78.4141 113.98H81.0087C82.1155 113.98 83.0046 114.869 83.0046 115.976V118.571L84.1296 119.696C84.311 119.877 84.565 119.986 84.8372 119.986H92.0041V112.819C92.0041 112.547 91.8953 112.293 91.7138 112.111C91.3147 111.712 91.3147 111.095 91.7138 110.696C92.113 110.297 92.7299 110.297 93.1291 110.696C93.6915 111.259 94 112.021 94 112.819V119.986C94 121.093 93.1109 121.982 92.0041 121.982V122ZM72.7168 90.1206L71.7552 89.159C71.229 88.6328 71.0476 87.8707 71.2653 87.1631C71.9185 85.0221 72.1362 82.7722 71.9548 80.5405C71.1383 71.5047 63.7717 64.4647 54.7178 64.0293C54.4819 64.0293 54.246 64.0293 54.0102 64.0293C49.1112 64.0293 44.43 66.0251 41.0371 69.5632C37.6441 73.1014 35.8297 77.8551 36.0293 82.7359C36.4647 91.7899 43.5047 99.1564 52.5405 99.9729C54.7722 100.154 57.0221 99.9185 59.1631 99.2835C59.8707 99.0657 60.6328 99.2653 61.159 99.7733L62.1206 100.735C62.5198 101.116 63.1367 101.116 63.5359 100.735L63.5903 100.662C63.5903 100.662 63.5903 100.662 63.5903 100.644L69.088 95.1466L72.5898 91.6447C72.5898 91.6447 72.5898 91.6447 72.608 91.6447L72.6806 91.5722C73.0616 91.173 73.0616 90.5561 72.6806 90.1569L72.7168 90.1206Z" fill="#051250"/>
<path d="M65.5862 80.9938H65.0056V90.9913C65.0056 92.0981 64.1165 92.9871 63.0097 92.9871H45.0107C43.9039 92.9871 43.0148 92.0981 43.0148 90.9913V80.9938H42.4342C41.8354 80.9938 41.2911 80.5946 41.1097 80.0322C40.8919 79.4334 41.0915 78.7802 41.5814 78.381L49.6556 71.9761L52.9216 69.3815C53.5566 68.8735 54.4638 68.8735 55.117 69.3815L66.4753 78.3629C66.9652 78.7621 67.1648 79.4334 66.947 80.0322C66.7656 80.6128 66.2213 80.9938 65.6225 80.9938H65.5862ZM58.9999 90.9913V84.9855H57.004V90.9913H58.9999ZM44.9925 90.9913H54.99V84.9855C54.99 83.8787 55.8791 82.9897 56.9859 82.9897H58.9817C60.0885 82.9897 60.9776 83.8787 60.9776 84.9855V90.9913H62.9735V80.9938H44.9744V90.9913H44.9925ZM53.9921 71.0508L43.9765 78.9798H64.0077L53.9921 71.0508Z" fill="#051250"/>
<path d="M50.9982 88.9954H49.0023C47.8955 88.9954 47.0064 88.1063 47.0064 86.9995V85.0037C47.0064 83.8969 47.8955 83.0078 49.0023 83.0078H50.9982C52.1049 83.0078 52.994 83.8969 52.994 85.0037V86.9995C52.994 88.1063 52.1049 88.9954 50.9982 88.9954ZM50.9982 85.0037H49.0023V86.9995H50.9982V85.0037Z" fill="#051250"/>
</svg>
