<svg width="575" height="341" viewBox="0 0 575 341" fill="none" xmlns="http://www.w3.org/2000/svg">
<rect y="41" width="575" height="300" fill="#BCE7FF"/>
<path d="M24.9566 41H104.818V105.271C104.818 119.744 96.9862 133.084 84.3485 140.138C72.2526 146.889 57.5217 146.889 45.4259 140.138C32.7881 133.084 24.9566 119.744 24.9566 105.271V41Z" fill="#9BD1EF"/>
<g clip-path="url(#clip0_442_146)">
<path d="M93.8798 106.474C89.3316 108.058 84.6938 109.346 80.0112 110.287C75.0373 111.302 69.9963 111.971 64.9552 112.243" stroke="#051250" stroke-width="2.5" stroke-linecap="round" stroke-linejoin="round"/>
<path d="M81.5795 120.762C80.5713 117.394 80.0336 113.828 80.0112 110.262V109.519C80.0112 108.405 80.1008 107.266 80.2801 106.176C80.5265 104.691 80.997 103.254 81.5123 101.843" stroke="#051250" stroke-width="2.5" stroke-linecap="round" stroke-linejoin="round"/>
<path d="M71.0269 103.354L72.2816 104.74C72.9537 105.483 73.8051 105.706 74.186 105.285C74.5669 104.839 74.3428 103.923 73.6931 103.18L72.4384 101.793L71.7439 102.561L71.0493 103.329L71.0269 103.354Z" fill="#BCE7FF"/>
<path d="M42.3488 64.9715L50.8178 74.3318C52.5206 76.2138 53.4167 74.2575 53.4167 74.2575L43.6707 63.5105L42.3488 64.9715Z" fill="#BCE7FF"/>
<path d="M36.6356 68.9829L55.4332 89.734L55.8364 89.3131L57.7633 87.1587L59.7125 85.0291L60.0934 84.5834L50.8178 74.3564L42.3488 64.9714L41.2957 63.8323L40.7356 64.4761L38.9656 66.4076L37.2405 68.3143L36.6356 68.9829Z" fill="white"/>
<path d="M57.7633 87.1589L55.8365 89.3132L67.9799 102.735L70.5564 103.874L71.0269 103.354L71.7215 102.586L72.416 101.818L72.8865 101.298L71.8559 98.4507L59.7125 85.0293L57.7633 87.1589Z" fill="white"/>
<path d="M38.9656 66.4076L40.7356 64.4761L41.2957 63.8323L42.3488 64.9714L50.8178 74.3564L60.0934 84.5834L59.7125 85.0291L57.7633 87.1587" stroke="#051250" stroke-width="2.5" stroke-linecap="round" stroke-linejoin="round"/>
<path d="M59.7125 85.0293L71.8559 98.4507L72.8865 101.298L72.416 101.818L71.7215 102.586" stroke="#051250" stroke-width="2.5" stroke-linecap="round" stroke-linejoin="round"/>
<path d="M38.9657 66.4077L37.2405 68.3144L36.6356 68.983L55.4332 89.7342L55.8365 89.3132L57.7633 87.1589" stroke="#051250" stroke-width="2.5" stroke-linecap="round" stroke-linejoin="round"/>
<path d="M55.8364 89.3132L67.9798 102.735L70.5564 103.874L71.0269 103.354L71.7214 102.586" stroke="#051250" stroke-width="2.5" stroke-linecap="round" stroke-linejoin="round"/>
<path d="M40.7356 64.4762L39.593 63.238L36.1202 67.0763L37.2405 68.3144" stroke="#051250" stroke-width="2.5" stroke-linecap="round" stroke-linejoin="round"/>
<path d="M72.7745 102.215L74.0291 103.601C74.6789 104.344 74.9029 105.285 74.522 105.706" stroke="#051250" stroke-width="2.5" stroke-linecap="round" stroke-linejoin="round"/>
<path d="M71.363 103.775L72.6176 105.161C73.2898 105.904 74.1412 106.127 74.522 105.706" stroke="#051250" stroke-width="2.5" stroke-linecap="round" stroke-linejoin="round"/>
<path d="M42.3488 65.0211L43.6707 63.5601L53.4167 74.3318C53.4167 74.3318 52.543 76.2881 50.8178 74.4061" stroke="#051250" stroke-width="2.5" stroke-linecap="round" stroke-linejoin="round"/>
</g>
<path d="M530.371 81.5078H504.297L516.797 60.2188H553.125V211H530.371V81.5078Z" fill="#9BD1EF"/>
<defs>
<clipPath id="clip0_442_146">
<rect width="60" height="60" fill="white" transform="matrix(-1 0 0 1 95 62)"/>
</clipPath>
</defs>
</svg>
