<svg width="575" height="341" viewBox="0 0 575 341" fill="none" xmlns="http://www.w3.org/2000/svg">
<rect y="41" width="575" height="300" fill="#1C609C"/>
<path d="M519.758 140.98V121.547C529.393 121.547 535.871 120.473 539.191 118.324C545.116 114.548 548.078 108.493 548.078 100.16C548.078 93.7148 545.93 88.474 541.633 84.4375C537.401 80.3359 531.9 78.2852 525.129 78.2852C518.814 78.2852 513.931 79.8151 510.48 82.875C507.16 86 504.686 91.2734 503.059 98.6953H480.402C482.746 84.5026 487.564 74.1185 494.855 67.543C502.147 60.9023 512.336 57.582 525.422 57.582C538.638 57.582 549.413 61.4883 557.746 69.3008C566.079 77.0482 570.246 87.0417 570.246 99.2812C570.246 113.083 564.777 123.826 553.84 131.508C566.34 138.865 572.59 150.811 572.59 167.348C572.59 180.889 568.033 191.957 558.918 200.551C549.803 209.145 538.117 213.441 523.859 213.441C505.695 213.441 492.219 206.768 483.43 193.422C479.784 187.823 477.473 180.076 476.496 170.18H498.469C499.641 177.471 502.473 183.07 506.965 186.977C511.522 190.818 517.447 192.738 524.738 192.738C532.095 192.738 538.182 190.297 543 185.414C547.818 180.401 550.227 174.053 550.227 166.371C550.227 156.215 546.613 148.988 539.387 144.691C535.155 142.217 528.612 140.98 519.758 140.98Z" fill="#457FB1"/>
<path d="M25 41H105V105.21C105 119.719 97.1435 133.09 84.4693 140.152C72.3658 146.896 57.6342 146.896 45.5307 140.152C32.8565 133.09 25 119.719 25 105.21V41Z" fill="#457FB1"/>
<path d="M85.6878 82.0277C85.2603 81.6001 84.572 81.6001 84.1497 82.0277C83.7274 82.45 83.7274 83.1435 84.1497 83.571L89.1394 88.5607C89.5669 88.9883 90.2552 88.9883 90.6827 88.5607C91.105 88.1384 91.105 87.4449 90.6827 87.0226L85.6878 82.0277Z" fill="#051250"/>
<path d="M86.8507 77.7213C86.2511 77.7213 85.761 77.2416 85.7557 76.6368C85.7557 76.0372 86.2354 75.5419 86.8402 75.5419L93.9051 75.5054C94.5047 75.5054 94.9948 75.9903 95 76.5899C95.0052 77.1895 94.5203 77.6796 93.9207 77.6848L86.8559 77.7213H86.8507Z" fill="#051250"/>
<path d="M85.7452 71.1098C85.3228 71.5373 84.6294 71.5373 84.2018 71.1098C83.7795 70.6875 83.7795 69.9992 84.2018 69.5717L89.1968 64.5768C89.6191 64.1492 90.3125 64.1492 90.7349 64.5768C91.1572 64.9991 91.1572 65.6925 90.7349 66.1149L85.74 71.1098H85.7452Z" fill="#051250"/>
<path d="M74.5683 57.8142L55.8452 66.9073C54.9849 67.3244 54.0412 67.5434 53.087 67.5434H39.3588C36.95 67.5434 35 69.4934 35 71.897V81.5166C35 83.9202 36.9552 85.865 39.3588 85.8598L53.0923 85.8181C54.0412 85.8181 54.9901 86.0319 55.8504 86.449L74.5683 95.5368V57.8142Z" fill="white" stroke="#051250" stroke-width="3"/>
<path d="M76.3201 56H78.2544C79.2555 56 80.0689 56.8134 80.0689 57.8144V95.6257C80.0689 96.6268 79.2555 97.4401 78.2544 97.4401H76.3201C75.319 97.4401 74.5056 96.6268 74.5056 95.6257V57.8144C74.5056 56.8134 75.319 56 76.3201 56Z" fill="white" stroke="#051250" stroke-width="3" stroke-linecap="round" stroke-linejoin="round"/>
<path d="M48.6865 107.039C48.6865 108.608 47.4039 109.88 45.8345 109.87L43.5404 109.86C41.971 109.854 40.704 108.577 40.7092 107.002L40.7927 76.1465L48.7699 76.1778L48.6865 107.034V107.039Z" fill="white" stroke="#051250" stroke-width="3" stroke-linecap="round" stroke-linejoin="round"/>
<path d="M52.9984 67.5381H39.3588C36.95 67.5381 35 69.4881 35 71.8917V81.5114C35 83.915 36.9552 85.8598 39.3588 85.8545L52.9984 85.8128V67.5381Z" fill="white" stroke="#051250" stroke-width="3" stroke-linecap="round" stroke-linejoin="round"/>
</svg>
