<svg width="575" height="341" viewBox="0 0 575 341" fill="none" xmlns="http://www.w3.org/2000/svg">
<rect y="41" width="575" height="300" fill="#4193DD"/>
<path d="M558.633 168.91H574.648V189.613H558.633V211H535.879V189.613H461.855L558.633 48.9883V168.91ZM535.879 168.91V118.422L501.113 168.91H535.879Z" fill="#6CA8DF"/>
<path d="M25 41H105V107.59C105 121.953 97.2988 135.214 84.8232 142.332C72.5373 149.342 57.4627 149.342 45.1768 142.332C32.7012 135.214 25 121.953 25 107.59V41Z" fill="#6CA8DF"/>
<path d="M36.9288 63.3196V100.335L41.453 103.221L48.4072 104.334L55.5195 105.22L62.0984 104.334L67.3733 103.586L70.0997 100.335L70.7714 97.6922V62.3981L67.5116 58.7818L60.834 57.0432L52.1412 56.8171L44.0411 57.2518L37.6203 59.7728L36.9288 63.3196Z" fill="white"/>
<path d="M61.4658 92.2849V110.367L66.0098 113.253L72.964 114.365L80.0565 115.235L86.6552 114.365L91.9301 113.618L94.6565 110.367L95.3282 107.724V91.3635L92.0684 87.7471L85.3907 86.0085L76.6782 85.7825L68.5979 86.2171L62.177 88.7208L61.4658 92.2849Z" fill="white"/>
<path d="M90.4682 86.3912C87.1689 85.2263 82.8028 84.583 78.16 84.583C75.9868 84.583 73.8334 84.7221 71.68 85.0177V62.7807C71.68 60.8334 69.7043 59.06 66.1482 57.8082C62.8489 56.6433 58.4827 56 53.84 56C49.1972 56 44.8311 56.6433 41.5318 57.8082C37.9559 59.06 36 60.8334 36 62.7807V98.5094C36 100.457 37.9756 102.23 41.5318 103.482C44.8311 104.647 49.1972 105.29 53.84 105.29C56.0132 105.29 58.1666 105.151 60.3201 104.855V109.219C60.3201 111.167 62.2957 112.94 65.8518 114.192C69.1511 115.357 73.5173 116 78.16 116C82.8028 116 87.1689 115.357 90.4682 114.192C94.0441 112.94 96 111.167 96 109.219V91.3463C96 89.399 94.0441 87.6256 90.4682 86.3738V86.3912ZM53.84 57.6517C63.2637 57.6517 69.8228 60.364 69.8228 62.7807C69.8228 65.1973 63.2637 67.9096 53.84 67.9096C44.4162 67.9096 37.8571 65.1973 37.8571 62.7807C37.8571 60.364 44.4162 57.6517 53.84 57.6517ZM37.8571 65.8928C38.7659 66.5882 40.0105 67.2315 41.5318 67.7705C44.8311 68.9354 49.1972 69.5787 53.84 69.5787C58.4827 69.5787 62.8489 68.9354 66.1482 67.7705C67.6694 67.2315 68.9141 66.6056 69.8228 65.8928V68.7441C69.8228 71.1782 63.2637 73.8731 53.84 73.8731C44.4162 73.8731 37.8571 71.1608 37.8571 68.7441V65.8928ZM37.8571 71.8563C38.7659 72.5517 40.0105 73.195 41.5318 73.734C44.8311 74.8989 49.1972 75.5422 53.84 75.5422C58.4827 75.5422 62.8489 74.8989 66.1482 73.734C67.6694 73.195 68.9141 72.5691 69.8228 71.8563V74.7076C69.8228 77.1417 63.2637 79.8366 53.84 79.8366C44.4162 79.8366 37.8571 77.1243 37.8571 74.7076V71.8563ZM37.8571 77.8198C38.7659 78.5152 40.0105 79.1585 41.5318 79.6975C44.8311 80.8624 49.1972 81.5056 53.84 81.5056C58.4827 81.5056 62.8489 80.8624 66.1482 79.6975C67.6694 79.1585 68.9141 78.5326 69.8228 77.8198V80.6711C69.8228 83.1052 63.2637 85.8 53.84 85.8C44.4162 85.8 37.8571 83.0878 37.8571 80.6711V77.8198ZM37.8571 83.7833C38.7659 84.4787 40.0105 85.122 41.5318 85.661C44.8311 86.8258 49.1972 87.4691 53.84 87.4691C58.4827 87.4691 62.8489 86.8258 66.1482 85.661C67.6694 85.122 68.9141 84.4961 69.8228 83.7833V85.3654C68.4597 85.6262 67.136 85.9739 65.8518 86.4086C62.3352 87.643 60.3596 89.3816 60.3201 91.2941C58.1864 91.6071 56.0132 91.7635 53.84 91.7635C44.4162 91.7635 37.8571 89.0513 37.8571 86.6346V83.7833ZM37.8571 89.7467C38.7659 90.4422 40.0105 91.0855 41.5318 91.6245C44.8311 92.7893 49.1972 93.4326 53.84 93.4326C56.0132 93.4326 58.1666 93.2935 60.3201 92.998V97.2924C58.1864 97.6053 56.0132 97.7618 53.84 97.7618C44.4162 97.7618 37.8571 95.0496 37.8571 92.6329V89.7815V89.7467ZM37.8571 98.5616V95.7102C38.7659 96.4057 40.0105 97.049 41.5318 97.5879C44.8311 98.7528 49.1972 99.3961 53.84 99.3961C56.0132 99.3961 58.1666 99.257 60.3201 98.9615V103.256C58.1864 103.569 56.0132 103.725 53.84 103.725C44.4162 103.725 37.8571 101.013 37.8571 98.5963V98.5616ZM78.16 114.4C68.7363 114.4 62.1771 111.688 62.1771 109.271V106.42C63.0859 107.116 64.3306 107.759 65.8518 108.298C69.1511 109.463 73.5173 110.106 78.16 110.106C82.8028 110.106 87.1689 109.463 90.4682 108.298C91.9895 107.759 93.2341 107.133 94.1429 106.42V109.271C94.1429 111.706 87.5838 114.4 78.16 114.4ZM78.16 108.437C68.7363 108.437 62.1771 105.725 62.1771 103.308V100.457C63.0859 101.152 64.3306 101.795 65.8518 102.334C69.1511 103.499 73.5173 104.143 78.16 104.143C82.8028 104.143 87.1689 103.499 90.4682 102.334C91.9895 101.795 93.2341 101.17 94.1429 100.457V103.308C94.1429 105.742 87.5838 108.437 78.16 108.437ZM78.16 102.473C68.7363 102.473 62.1771 99.7612 62.1771 97.3445V94.4932C63.0859 95.1886 64.3306 95.8319 65.8518 96.3709C69.1511 97.5358 73.5173 98.1791 78.16 98.1791C82.8028 98.1791 87.1689 97.5358 90.4682 96.3709C91.9895 95.8319 93.2341 95.206 94.1429 94.4932V97.3445C94.1429 99.7786 87.5838 102.473 78.16 102.473ZM78.16 96.51C68.7363 96.51 62.1771 93.7977 62.1771 91.3811C62.1771 88.9644 68.7363 86.2521 78.16 86.2521C87.5838 86.2521 94.1429 88.9644 94.1429 91.3811C94.1429 93.7977 87.5838 96.51 78.16 96.51Z" fill="#051250"/>
</svg>
