<svg xmlns="http://www.w3.org/2000/svg" width="183" height="122"><path d="M 150.199 73.042 C 150.32 73.006 150.444 72.98 150.569 72.963 L 155.566 62.854 L 154.04 60.577 L 157.191 57.835 L 161.151 62.661 L 153.085 74.349 C 153.491 75.254 153.293 76.315 152.586 77.014 C 151.88 77.713 150.813 77.903 149.907 77.493 C 149 77.082 148.444 76.156 148.509 75.167 C 148.574 74.177 149.247 73.331 150.199 73.042 Z" fill="rgb(160,97,106)"></path><path d="M 158.729 59.232 C 158.661 59.303 158.583 59.365 158.497 59.414 L 153.385 62.365 C 153.136 62.508 152.839 62.542 152.565 62.457 C 152.29 62.372 152.064 62.176 151.942 61.918 L 149.455 56.687 C 149.236 56.232 149.386 55.687 149.806 55.405 L 152.975 53.258 C 153.383 52.982 153.931 53.034 154.28 53.382 L 158.709 57.808 C 159.101 58.199 159.11 58.83 158.729 59.232 Z" fill="rgb(204,204,204)"></path><path d="M 165.908 117.158 L 163.208 117.89 L 159.091 107.871 L 163.075 106.792 Z" fill="rgb(160,97,106)"></path><path d="M 161.07 117.644 L 166.276 116.234 L 167.168 119.497 L 158.684 121.796 C 158.192 119.993 159.26 118.135 161.07 117.644 Z" fill="rgb(47,46,65)"></path><path d="M 142.832 119.209 L 140.034 119.209 L 138.703 108.466 L 142.832 108.466 Z" fill="rgb(160,97,106)"></path><path d="M 138.036 118.413 L 143.431 118.413 L 143.431 121.796 L 134.639 121.796 C 134.639 119.928 136.16 118.414 138.036 118.413 Z" fill="rgb(47,46,65)"></path><path d="M 140.175 44.112 C 140.175 41.03 142.684 38.532 145.779 38.532 C 148.874 38.532 151.383 41.03 151.383 44.112 C 151.383 47.194 148.874 49.692 145.779 49.692 C 142.684 49.692 140.175 47.194 140.175 44.112 Z" fill="rgb(160,97,106)"></path><path d="M 142.66 111.549 L 138.837 111.549 C 138.295 111.548 137.846 111.129 137.812 110.59 C 136.672 92.56 137.339 79.627 139.909 69.889 C 139.92 69.846 139.934 69.804 139.95 69.763 L 140.155 69.254 C 140.31 68.864 140.688 68.609 141.108 68.611 L 148.97 68.611 C 149.269 68.611 149.554 68.741 149.749 68.968 L 150.817 70.208 C 150.838 70.232 150.857 70.257 150.876 70.283 C 155.691 76.968 160.006 90.038 165.003 107.605 C 165.157 108.136 164.857 108.692 164.328 108.858 L 160.22 110.167 C 159.732 110.32 159.206 110.095 158.982 109.638 L 148.321 87.621 C 148.168 87.306 147.825 87.127 147.477 87.182 C 147.129 87.236 146.858 87.512 146.81 87.859 L 143.678 110.665 C 143.607 111.171 143.173 111.548 142.66 111.549 Z" fill="rgb(47,46,65)"></path><path d="M 150.386 70.299 L 150.354 70.299 L 140.805 69.998 C 140.297 69.984 139.877 69.602 139.817 69.1 C 138.607 59.344 141.926 56.731 143.41 56.06 C 143.662 55.947 143.836 55.71 143.869 55.437 L 143.997 54.414 C 144.019 54.234 144.089 54.062 144.2 53.918 C 146.526 50.918 149.702 49.957 151.388 49.652 C 151.665 49.602 151.95 49.668 152.176 49.833 C 152.403 49.998 152.551 50.249 152.587 50.526 L 152.779 51.994 C 152.799 52.134 152.855 52.267 152.942 52.379 C 157.793 58.693 152.389 68.015 151.256 69.82 C 151.068 70.118 150.739 70.299 150.386 70.299 Z" fill="rgb(204,204,204)"></path><path d="M 157.086 44.74 C 155.836 42.987 154.336 41.425 152.635 40.101 C 151.221 39.001 149.647 38.061 147.91 37.612 C 146.173 37.162 144.255 37.239 142.67 38.077 C 141.085 38.916 139.447 40.582 139.437 42.369 C 139.434 42.943 139.58 43.719 140.148 43.62 L 140.312 43.642 L 144.421 42.816 L 146.171 48.862 C 146.294 49.287 146.459 49.762 146.864 49.943 C 147.245 50.114 147.686 49.953 148.072 49.793 C 148.136 49.766 148.681 48.547 148.681 48.547 C 148.709 48.47 148.777 48.413 148.859 48.4 C 148.94 48.386 149.023 48.418 149.074 48.482 L 149.398 48.885 C 149.525 49.043 149.743 49.098 149.93 49.02 L 156.631 46.236 C 156.94 46.107 157.285 45.94 157.374 45.619 C 157.46 45.311 157.271 45.001 157.086 44.74 Z" fill="rgb(47,46,65)"></path><path d="M 182.761 122 L 114.079 122 C 113.953 122 113.851 121.898 113.851 121.773 C 113.851 121.647 113.953 121.546 114.079 121.546 L 182.761 121.546 C 182.887 121.546 182.989 121.647 182.989 121.773 C 182.989 121.898 182.887 122 182.761 122 Z" fill="rgb(63,61,86)"></path><path d="M 145.526 86.596 C 145.371 86.595 145.22 86.546 145.095 86.454 L 144.056 85.702 C 143.88 85.574 143.639 85.574 143.463 85.702 L 142.424 86.454 C 142.167 86.64 141.819 86.64 141.562 86.454 C 141.305 86.268 141.197 85.938 141.296 85.638 L 141.692 84.422 C 141.76 84.215 141.686 83.988 141.509 83.86 L 140.47 83.108 C 140.213 82.922 140.105 82.593 140.204 82.292 C 140.302 81.991 140.584 81.787 140.901 81.788 L 142.185 81.788 C 142.404 81.788 142.598 81.648 142.665 81.44 L 143.062 80.225 C 143.16 79.924 143.442 79.72 143.759 79.72 C 144.077 79.72 144.359 79.924 144.457 80.225 L 144.854 81.44 C 144.921 81.648 145.115 81.788 145.334 81.788 L 146.618 81.788 C 146.935 81.788 147.217 81.991 147.315 82.292 C 147.413 82.593 147.306 82.923 147.049 83.108 L 146.01 83.86 C 145.833 83.987 145.759 84.215 145.827 84.422 L 146.223 85.638 C 146.325 85.938 146.217 86.27 145.957 86.454 C 145.832 86.546 145.681 86.595 145.526 86.596 Z" fill="rgb(5,18,80)"></path><path d="M 149.495 84.165 C 150.089 83.751 150.468 83.095 150.53 82.376 C 150.592 81.656 150.331 80.946 149.816 80.437 L 151.59 59.11 L 146.309 59.834 L 146.209 80.554 C 145.388 81.492 145.402 82.892 146.24 83.814 C 147.079 84.736 148.478 84.887 149.495 84.165 Z" fill="rgb(160,97,106)"></path><path d="M 151.935 62.181 C 151.836 62.181 151.738 62.167 151.643 62.139 L 145.974 60.479 C 145.698 60.398 145.469 60.206 145.342 59.95 C 145.215 59.693 145.202 59.396 145.306 59.129 L 147.404 53.732 C 147.585 53.261 148.085 52.993 148.579 53.103 L 152.325 53.914 C 152.807 54.018 153.147 54.449 153.133 54.941 L 152.959 61.187 C 152.943 61.739 152.49 62.179 151.935 62.181 Z" fill="rgb(204,204,204)"></path><path d="M 98.574 88.831 L 1.597 88.831 C 0.716 88.83 0.001 88.118 0 87.24 L 0 58.387 C 0.001 57.509 0.716 56.798 1.597 56.797 L 98.574 56.797 C 99.455 56.798 100.17 57.509 100.171 58.387 L 100.171 87.24 C 100.17 88.118 99.455 88.83 98.574 88.831 Z M 1.597 57.251 C 0.967 57.252 0.457 57.76 0.456 58.387 L 0.456 87.24 C 0.457 87.867 0.967 88.375 1.597 88.376 L 98.574 88.376 C 99.203 88.375 99.714 87.867 99.714 87.24 L 99.714 58.387 C 99.714 57.76 99.203 57.252 98.574 57.251 Z" fill="rgb(63,61,86)"></path><path d="M 44.033 100.979 C 43.843 100.979 43.658 100.918 43.505 100.805 L 42.233 99.885 C 42.016 99.727 41.722 99.727 41.505 99.885 L 40.233 100.805 C 39.918 101.033 39.492 101.033 39.177 100.805 C 38.862 100.578 38.731 100.174 38.851 99.806 L 39.337 98.316 C 39.42 98.062 39.329 97.784 39.112 97.627 L 37.839 96.707 C 37.525 96.479 37.393 96.076 37.513 95.707 C 37.633 95.339 37.978 95.089 38.367 95.089 L 39.94 95.089 C 40.208 95.09 40.446 94.918 40.529 94.664 L 41.015 93.174 C 41.135 92.806 41.48 92.556 41.869 92.556 C 42.258 92.556 42.603 92.806 42.723 93.174 L 43.209 94.664 C 43.292 94.918 43.53 95.09 43.798 95.089 L 45.371 95.089 C 45.76 95.089 46.104 95.339 46.224 95.707 C 46.345 96.076 46.213 96.479 45.898 96.707 L 44.626 97.627 C 44.409 97.784 44.318 98.062 44.401 98.316 L 44.887 99.806 C 45.012 100.174 44.879 100.58 44.561 100.805 C 44.408 100.918 44.223 100.979 44.033 100.979 Z M 56.927 100.979 C 56.737 100.979 56.552 100.918 56.399 100.805 L 55.127 99.885 C 54.91 99.728 54.616 99.728 54.399 99.885 L 53.127 100.805 C 52.812 101.033 52.386 101.033 52.071 100.805 C 51.756 100.578 51.625 100.174 51.745 99.806 L 52.231 98.316 C 52.314 98.063 52.223 97.784 52.006 97.627 L 50.733 96.707 C 50.419 96.479 50.288 96.076 50.408 95.707 C 50.528 95.339 50.873 95.09 51.261 95.089 L 52.834 95.089 C 53.103 95.09 53.34 94.918 53.423 94.664 L 53.909 93.174 C 54.029 92.806 54.374 92.556 54.763 92.556 C 55.152 92.556 55.497 92.806 55.617 93.174 L 56.103 94.664 C 56.186 94.918 56.424 95.09 56.692 95.089 L 58.265 95.089 C 58.654 95.089 58.998 95.339 59.119 95.707 C 59.239 96.076 59.107 96.479 58.793 96.707 L 57.52 97.627 C 57.303 97.784 57.212 98.062 57.295 98.316 L 57.781 99.806 C 57.906 100.174 57.773 100.58 57.455 100.805 C 57.302 100.918 57.117 100.979 56.927 100.979 Z M 69.821 100.979 C 69.631 100.979 69.446 100.918 69.293 100.805 L 68.021 99.885 C 67.804 99.728 67.51 99.728 67.293 99.885 L 66.021 100.805 C 65.706 101.033 65.28 101.033 64.965 100.806 C 64.65 100.578 64.518 100.174 64.639 99.806 L 65.125 98.316 C 65.208 98.062 65.117 97.784 64.9 97.627 L 63.628 96.707 C 63.313 96.479 63.182 96.076 63.302 95.707 C 63.422 95.339 63.767 95.09 64.156 95.089 L 65.728 95.089 C 65.996 95.09 66.234 94.918 66.317 94.664 L 66.803 93.174 C 66.923 92.805 67.268 92.556 67.657 92.556 C 68.046 92.556 68.391 92.805 68.511 93.174 L 68.997 94.664 C 69.08 94.918 69.318 95.09 69.586 95.089 L 71.158 95.089 C 71.548 95.089 71.892 95.339 72.012 95.707 C 72.133 96.076 72.001 96.479 71.686 96.707 L 70.414 97.627 C 70.197 97.784 70.106 98.062 70.189 98.316 L 70.675 99.806 C 70.8 100.174 70.668 100.58 70.349 100.805 C 70.196 100.918 70.011 100.979 69.821 100.979 Z M 82.715 100.979 C 82.525 100.979 82.34 100.918 82.187 100.805 L 80.915 99.885 C 80.698 99.728 80.404 99.728 80.188 99.885 L 78.915 100.805 C 78.6 101.033 78.174 101.033 77.859 100.805 C 77.545 100.578 77.413 100.174 77.533 99.806 L 78.019 98.316 C 78.102 98.062 78.011 97.784 77.794 97.627 L 76.522 96.707 C 76.207 96.479 76.076 96.076 76.196 95.707 C 76.316 95.339 76.661 95.09 77.05 95.089 L 78.622 95.089 C 78.891 95.09 79.129 94.918 79.211 94.664 L 79.697 93.174 C 79.817 92.806 80.162 92.556 80.551 92.556 C 80.94 92.556 81.285 92.806 81.405 93.174 L 81.891 94.664 C 81.974 94.918 82.212 95.09 82.48 95.089 L 84.053 95.089 C 84.442 95.089 84.786 95.339 84.907 95.707 C 85.027 96.076 84.895 96.479 84.581 96.707 L 83.308 97.627 C 83.091 97.784 83 98.062 83.083 98.316 L 83.569 99.806 C 83.694 100.174 83.562 100.58 83.243 100.805 C 83.09 100.918 82.905 100.979 82.715 100.979 Z" fill="rgb(5,18,80)"></path><path d="M 91.281 101.068 C 91.072 101.067 90.869 101 90.701 100.877 C 90.351 100.63 90.206 100.183 90.343 99.778 L 90.829 98.289 C 90.9 98.072 90.822 97.833 90.636 97.699 L 89.364 96.778 C 89.018 96.528 88.873 96.085 89.005 95.68 C 89.138 95.275 89.516 95.001 89.944 95.001 L 91.516 95.001 C 91.746 95.002 91.95 94.854 92.021 94.636 L 92.507 93.147 C 92.639 92.742 93.018 92.468 93.445 92.468 C 93.873 92.468 94.252 92.742 94.384 93.147 L 94.87 94.636 C 94.94 94.854 95.144 95.002 95.374 95.001 L 96.947 95.001 C 97.374 95.001 97.753 95.275 97.885 95.68 C 98.017 96.085 97.872 96.528 97.527 96.778 L 96.254 97.699 C 96.068 97.833 95.99 98.072 96.062 98.289 L 96.548 99.778 C 96.68 100.183 96.535 100.626 96.189 100.877 C 95.843 101.127 95.375 101.127 95.029 100.877 L 93.757 99.956 C 93.571 99.822 93.319 99.822 93.134 99.956 L 91.861 100.877 C 91.693 101 91.49 101.067 91.281 101.068 Z M 93.445 99.4 C 93.654 99.4 93.857 99.466 94.025 99.589 L 95.298 100.509 C 95.483 100.643 95.735 100.643 95.921 100.509 C 96.107 100.374 96.184 100.136 96.114 99.919 L 95.628 98.429 C 95.495 98.025 95.64 97.581 95.986 97.331 L 97.258 96.411 C 97.444 96.276 97.522 96.038 97.451 95.82 C 97.38 95.603 97.176 95.456 96.947 95.456 L 95.374 95.456 C 94.946 95.456 94.567 95.182 94.436 94.777 L 93.95 93.288 C 93.878 93.07 93.675 92.923 93.445 92.923 C 93.216 92.923 93.012 93.07 92.941 93.288 L 92.455 94.777 C 92.324 95.182 91.944 95.456 91.516 95.456 L 89.944 95.456 C 89.714 95.456 89.51 95.603 89.439 95.82 C 89.368 96.038 89.446 96.276 89.632 96.411 L 90.904 97.331 C 91.251 97.581 91.396 98.025 91.263 98.429 L 90.777 99.919 C 90.706 100.136 90.783 100.375 90.969 100.509 C 91.155 100.644 91.407 100.643 91.593 100.509 L 92.865 99.589 C 93.034 99.466 93.237 99.4 93.445 99.4 Z" fill="rgb(63,61,86)"></path><path d="M 12.55 63.613 C 11.731 63.613 11.067 64.274 11.067 65.089 C 11.067 65.905 11.731 66.566 12.55 66.566 L 87.621 66.566 C 88.44 66.566 89.104 65.905 89.104 65.089 C 89.104 64.274 88.44 63.613 87.621 63.613 Z M 12.55 71.337 C 11.731 71.337 11.067 71.998 11.067 72.814 C 11.067 73.629 11.731 74.291 12.55 74.291 L 87.621 74.291 C 88.44 74.291 89.104 73.629 89.104 72.814 C 89.104 71.998 88.44 71.337 87.621 71.337 Z M 12.55 79.061 C 11.731 79.061 11.067 79.723 11.067 80.538 C 11.067 81.354 11.731 82.015 12.55 82.015 L 87.621 82.015 C 88.44 82.015 89.104 81.354 89.104 80.538 C 89.104 79.723 88.44 79.061 87.621 79.061 Z" fill="rgb(204,204,204)"></path><path d="M 12.55 63.613 C 11.731 63.613 11.067 64.274 11.067 65.089 C 11.067 65.905 11.731 66.566 12.55 66.566 L 87.621 66.566 C 88.44 66.566 89.104 65.905 89.104 65.089 C 89.104 64.274 88.44 63.613 87.621 63.613 Z M 12.55 71.337 C 11.731 71.337 11.067 71.998 11.067 72.814 C 11.067 73.629 11.731 74.291 12.55 74.291 L 87.621 74.291 C 88.44 74.291 89.104 73.629 89.104 72.814 C 89.104 71.998 88.44 71.337 87.621 71.337 Z M 12.55 79.061 C 11.731 79.061 11.067 79.723 11.067 80.538 C 11.067 81.354 11.731 82.015 12.55 82.015 L 87.621 82.015 C 88.44 82.015 89.104 81.354 89.104 80.538 C 89.104 79.723 88.44 79.061 87.621 79.061 Z" fill="rgb(204,204,204)"></path><path d="M 98.574 32.034 L 1.597 32.034 C 0.716 32.033 0.001 31.321 0 30.443 L 0 1.59 C 0.001 0.712 0.716 0.001 1.597 0 L 98.574 0 C 99.455 0.001 100.17 0.712 100.171 1.59 L 100.171 30.443 C 100.17 31.321 99.455 32.033 98.574 32.034 Z M 1.597 0.454 C 0.967 0.455 0.457 0.963 0.456 1.59 L 0.456 30.443 C 0.457 31.07 0.967 31.578 1.597 31.579 L 98.574 31.579 C 99.203 31.578 99.714 31.07 99.714 30.443 L 99.714 1.59 C 99.714 0.963 99.203 0.455 98.574 0.454 Z" fill="rgb(63,61,86)"></path><path d="M 44.033 44.182 C 43.843 44.182 43.658 44.121 43.505 44.008 L 42.233 43.088 C 42.016 42.93 41.722 42.93 41.505 43.088 L 40.233 44.008 C 39.918 44.236 39.492 44.236 39.177 44.008 C 38.862 43.781 38.731 43.377 38.851 43.009 L 39.337 41.519 C 39.42 41.265 39.329 40.987 39.112 40.83 L 37.839 39.91 C 37.525 39.682 37.393 39.279 37.513 38.91 C 37.633 38.542 37.978 38.292 38.367 38.292 L 39.94 38.292 C 40.208 38.293 40.446 38.121 40.529 37.867 L 41.015 36.377 C 41.135 36.009 41.48 35.759 41.869 35.759 C 42.258 35.759 42.603 36.009 42.723 36.377 L 43.209 37.867 C 43.292 38.121 43.53 38.293 43.798 38.292 L 45.371 38.292 C 45.76 38.292 46.104 38.542 46.224 38.91 C 46.345 39.279 46.213 39.682 45.898 39.91 L 44.626 40.83 C 44.409 40.987 44.318 41.265 44.401 41.519 L 44.887 43.009 C 45.012 43.377 44.879 43.783 44.561 44.008 C 44.408 44.121 44.223 44.182 44.033 44.182 Z M 56.927 44.182 C 56.737 44.182 56.552 44.121 56.399 44.008 L 55.127 43.088 C 54.91 42.931 54.616 42.931 54.399 43.088 L 53.127 44.008 C 52.812 44.236 52.386 44.236 52.071 44.008 C 51.756 43.781 51.625 43.377 51.745 43.009 L 52.231 41.519 C 52.314 41.266 52.223 40.987 52.006 40.83 L 50.733 39.91 C 50.419 39.682 50.288 39.279 50.408 38.91 C 50.528 38.542 50.873 38.293 51.261 38.292 L 52.834 38.292 C 53.103 38.293 53.34 38.121 53.423 37.867 L 53.909 36.377 C 54.029 36.009 54.374 35.759 54.763 35.759 C 55.152 35.759 55.497 36.009 55.617 36.377 L 56.103 37.867 C 56.186 38.121 56.424 38.293 56.692 38.292 L 58.265 38.292 C 58.654 38.292 58.998 38.542 59.119 38.91 C 59.239 39.278 59.107 39.682 58.793 39.91 L 57.52 40.83 C 57.303 40.987 57.212 41.265 57.295 41.519 L 57.781 43.009 C 57.906 43.377 57.773 43.783 57.455 44.008 C 57.302 44.121 57.117 44.182 56.927 44.182 Z M 69.821 44.182 C 69.631 44.182 69.446 44.121 69.293 44.008 L 68.021 43.088 C 67.804 42.931 67.51 42.931 67.293 43.088 L 66.021 44.008 C 65.706 44.236 65.28 44.236 64.965 44.009 C 64.65 43.781 64.518 43.377 64.639 43.009 L 65.125 41.519 C 65.208 41.265 65.117 40.987 64.9 40.83 L 63.628 39.91 C 63.313 39.682 63.182 39.279 63.302 38.91 C 63.422 38.542 63.767 38.293 64.156 38.292 L 65.728 38.292 C 65.996 38.293 66.234 38.121 66.317 37.867 L 66.803 36.377 C 66.923 36.008 67.268 35.759 67.657 35.759 C 68.046 35.759 68.391 36.008 68.511 36.377 L 68.997 37.867 C 69.08 38.121 69.318 38.293 69.586 38.292 L 71.158 38.292 C 71.548 38.292 71.892 38.542 72.012 38.91 C 72.133 39.278 72.001 39.682 71.686 39.91 L 70.414 40.83 C 70.197 40.987 70.106 41.265 70.189 41.519 L 70.675 43.009 C 70.8 43.377 70.668 43.783 70.349 44.008 C 70.196 44.121 70.011 44.182 69.821 44.182 Z" fill="rgb(5,18,80)"></path><path d="M 91.281 44.271 C 91.072 44.27 90.869 44.203 90.701 44.08 C 90.351 43.833 90.206 43.386 90.343 42.981 L 90.829 41.492 C 90.9 41.275 90.822 41.036 90.636 40.902 L 89.364 39.981 C 89.018 39.731 88.873 39.288 89.005 38.883 C 89.138 38.478 89.516 38.204 89.944 38.204 L 91.516 38.204 C 91.746 38.205 91.95 38.057 92.021 37.839 L 92.507 36.35 C 92.639 35.945 93.018 35.671 93.445 35.671 C 93.873 35.671 94.252 35.945 94.384 36.35 L 94.87 37.839 C 94.94 38.057 95.144 38.205 95.374 38.204 L 96.947 38.204 C 97.374 38.204 97.753 38.478 97.885 38.883 C 98.017 39.288 97.872 39.731 97.527 39.981 L 96.254 40.902 C 96.068 41.036 95.99 41.274 96.062 41.492 L 96.548 42.981 C 96.68 43.386 96.535 43.829 96.189 44.079 C 95.843 44.33 95.375 44.33 95.029 44.079 L 93.757 43.159 C 93.571 43.024 93.319 43.024 93.134 43.159 L 91.861 44.079 C 91.693 44.203 91.49 44.27 91.281 44.271 Z M 93.445 42.603 C 93.654 42.603 93.857 42.669 94.025 42.792 L 95.298 43.712 C 95.483 43.846 95.735 43.846 95.921 43.712 C 96.107 43.577 96.184 43.339 96.114 43.122 L 95.628 41.632 C 95.495 41.228 95.639 40.784 95.986 40.534 L 97.258 39.614 C 97.444 39.479 97.522 39.241 97.451 39.023 C 97.38 38.806 97.176 38.659 96.947 38.659 L 95.374 38.659 C 94.946 38.659 94.567 38.385 94.436 37.98 L 93.95 36.49 C 93.878 36.273 93.675 36.126 93.445 36.126 C 93.216 36.126 93.012 36.273 92.941 36.49 L 92.455 37.98 C 92.324 38.385 91.944 38.659 91.516 38.659 L 89.944 38.659 C 89.714 38.659 89.51 38.806 89.439 39.023 C 89.368 39.241 89.446 39.479 89.632 39.614 L 90.904 40.534 C 91.251 40.784 91.396 41.228 91.263 41.632 L 90.777 43.122 C 90.706 43.339 90.783 43.578 90.969 43.712 C 91.155 43.847 91.407 43.846 91.593 43.712 L 92.865 42.792 C 93.034 42.669 93.237 42.603 93.445 42.603 Z M 78.275 44.234 C 78.066 44.233 77.863 44.167 77.695 44.043 C 77.345 43.796 77.199 43.35 77.336 42.945 L 77.822 41.455 C 77.894 41.238 77.816 40.999 77.63 40.865 L 76.358 39.945 C 76.012 39.694 75.867 39.251 75.999 38.846 C 76.131 38.442 76.51 38.168 76.938 38.168 L 78.51 38.168 C 78.74 38.168 78.944 38.021 79.014 37.803 L 79.5 36.314 C 79.632 35.909 80.011 35.634 80.439 35.634 C 80.867 35.634 81.246 35.909 81.377 36.314 L 81.864 37.803 C 81.934 38.021 82.138 38.168 82.368 38.168 L 83.941 38.168 C 84.368 38.168 84.747 38.442 84.879 38.846 C 85.011 39.251 84.866 39.695 84.52 39.945 L 83.248 40.865 C 83.062 40.999 82.984 41.238 83.055 41.455 L 83.541 42.945 C 83.674 43.349 83.529 43.793 83.183 44.043 C 82.837 44.293 82.369 44.293 82.023 44.043 L 80.751 43.123 C 80.565 42.988 80.313 42.988 80.127 43.123 L 78.855 44.043 C 78.687 44.166 78.484 44.233 78.275 44.234 Z M 80.439 42.567 C 80.647 42.567 80.85 42.633 81.019 42.755 L 82.291 43.676 C 82.477 43.81 82.729 43.81 82.915 43.675 C 83.1 43.541 83.178 43.303 83.107 43.085 L 82.621 41.596 C 82.488 41.191 82.633 40.747 82.98 40.498 L 84.252 39.577 C 84.438 39.443 84.516 39.204 84.445 38.987 C 84.374 38.769 84.17 38.622 83.94 38.622 L 82.368 38.622 C 81.94 38.623 81.561 38.348 81.429 37.943 L 80.943 36.454 C 80.872 36.236 80.669 36.089 80.439 36.089 C 80.209 36.089 80.006 36.236 79.935 36.454 L 79.449 37.943 C 79.317 38.348 78.938 38.623 78.51 38.622 L 76.938 38.622 C 76.708 38.622 76.504 38.769 76.433 38.987 C 76.362 39.204 76.44 39.443 76.626 39.577 L 77.898 40.498 C 78.245 40.747 78.389 41.191 78.256 41.596 L 77.77 43.085 C 77.699 43.303 77.777 43.541 77.963 43.676 C 78.149 43.81 78.401 43.81 78.587 43.676 L 79.859 42.755 C 80.028 42.633 80.231 42.567 80.439 42.567 Z" fill="rgb(63,61,86)"></path><path d="M 12.55 6.816 C 11.731 6.816 11.067 7.477 11.067 8.292 C 11.067 9.108 11.731 9.769 12.55 9.769 L 87.621 9.769 C 88.44 9.769 89.104 9.108 89.104 8.292 C 89.104 7.477 88.44 6.816 87.621 6.816 Z M 12.55 14.54 C 11.731 14.54 11.067 15.201 11.067 16.017 C 11.067 16.832 11.731 17.493 12.55 17.493 L 87.621 17.493 C 88.44 17.493 89.104 16.832 89.104 16.017 C 89.104 15.201 88.44 14.54 87.621 14.54 Z M 12.55 22.264 C 11.731 22.264 11.067 22.926 11.067 23.741 C 11.067 24.557 11.731 25.218 12.55 25.218 L 87.621 25.218 C 88.44 25.218 89.104 24.557 89.104 23.741 C 89.104 22.926 88.44 22.264 87.621 22.264 Z" fill="rgb(204,204,204)"></path><path d="M 12.55 6.816 C 11.731 6.816 11.067 7.477 11.067 8.292 C 11.067 9.108 11.731 9.769 12.55 9.769 L 87.621 9.769 C 88.44 9.769 89.104 9.108 89.104 8.292 C 89.104 7.477 88.44 6.816 87.621 6.816 Z M 12.55 14.54 C 11.731 14.54 11.067 15.201 11.067 16.017 C 11.067 16.832 11.731 17.493 12.55 17.493 L 87.621 17.493 C 88.44 17.493 89.104 16.832 89.104 16.017 C 89.104 15.201 88.44 14.54 87.621 14.54 Z M 12.55 22.264 C 11.731 22.264 11.067 22.926 11.067 23.741 C 11.067 24.557 11.731 25.218 12.55 25.218 L 87.621 25.218 C 88.44 25.218 89.104 24.557 89.104 23.741 C 89.104 22.926 88.44 22.264 87.621 22.264 Z" fill="rgb(204,204,204)"></path></svg>